<mxfile host="app.diagrams.net" modified="2022-03-10T18:35:21.147Z" agent="5.0 (Windows)" etag="lfxKqiotrNHWzxZrFfZN" version="17.1.0" type="github">
  <diagram id="R-vtsllRjWptvhgfUugX" name="Page-1">
    <mxGraphModel dx="1422" dy="752" grid="1" gridSize="10" guides="1" tooltips="1" connect="1" arrows="1" fold="1" page="1" pageScale="1" pageWidth="827" pageHeight="1169" math="0" shadow="0">
      <root>
        <mxCell id="0" />
        <mxCell id="1" parent="0" />
        <mxCell id="UjC964fogurT_Rf7UAPe-1" value="" style="shape=image;verticalLabelPosition=bottom;labelBackgroundColor=default;verticalAlign=top;aspect=fixed;imageAspect=0;image=https://o.remove.bg/downloads/bcf56bba-a07d-4360-9be7-c0eeecf1608a/image-removebg-preview.png;" vertex="1" parent="1">
          <mxGeometry x="540" y="60" width="235.54" height="130" as="geometry" />
        </mxCell>
        <mxCell id="UjC964fogurT_Rf7UAPe-3" value="" style="shape=image;verticalLabelPosition=bottom;labelBackgroundColor=default;verticalAlign=top;aspect=fixed;imageAspect=0;image=https://o.remove.bg/downloads/546b3714-94e5-4662-80a4-6e40884e7d94/image-removebg-preview.png;" vertex="1" parent="1">
          <mxGeometry x="522.77" y="290" width="270" height="270" as="geometry" />
        </mxCell>
        <mxCell id="UjC964fogurT_Rf7UAPe-4" value="" style="shape=image;verticalLabelPosition=bottom;labelBackgroundColor=default;verticalAlign=top;aspect=fixed;imageAspect=0;image=https://o.remove.bg/downloads/b527db3a-627c-4f6d-aade-42cf5eb6162f/image-removebg-preview.png;" vertex="1" parent="1">
          <mxGeometry x="429.99999999999983" y="330" width="215.91" height="120" as="geometry" />
        </mxCell>
        <mxCell id="UjC964fogurT_Rf7UAPe-6" value="" style="shape=image;verticalLabelPosition=bottom;labelBackgroundColor=default;verticalAlign=top;aspect=fixed;imageAspect=0;image=https://o.remove.bg/downloads/4e845978-fed2-4edf-9369-0dded8a33c09/image-removebg-preview.png;" vertex="1" parent="1">
          <mxGeometry x="880" y="42.5" width="165" height="165" as="geometry" />
        </mxCell>
        <mxCell id="UjC964fogurT_Rf7UAPe-7" value="" style="shape=image;verticalLabelPosition=bottom;labelBackgroundColor=default;verticalAlign=top;aspect=fixed;imageAspect=0;image=https://o.remove.bg/downloads/074fca3e-b8ea-4ec3-bf4a-671aaecba170/image-removebg-preview.png;" vertex="1" parent="1">
          <mxGeometry x="892.5" y="330" width="140" height="140" as="geometry" />
        </mxCell>
        <mxCell id="UjC964fogurT_Rf7UAPe-8" value="" style="shape=image;verticalLabelPosition=bottom;labelBackgroundColor=default;verticalAlign=top;aspect=fixed;imageAspect=0;image=https://o.remove.bg/downloads/10a5251b-6cb7-424c-af25-938a95f4638b/image-removebg-preview.png;" vertex="1" parent="1">
          <mxGeometry x="263.99999999999994" y="50" width="150" height="150" as="geometry" />
        </mxCell>
        <mxCell id="UjC964fogurT_Rf7UAPe-9" value="" style="shape=image;verticalLabelPosition=bottom;labelBackgroundColor=default;verticalAlign=top;aspect=fixed;imageAspect=0;image=https://o.remove.bg/downloads/89e39acb-b74c-4910-bea0-2c0385968e4f/image-removebg-preview.png;" vertex="1" parent="1">
          <mxGeometry x="93.84" y="57.5" width="266.21" height="150" as="geometry" />
        </mxCell>
        <mxCell id="UjC964fogurT_Rf7UAPe-10" value="" style="shape=flexArrow;endArrow=classic;html=1;rounded=0;fillColor=#f8cecc;strokeColor=#b85450;" edge="1" parent="1">
          <mxGeometry width="50" height="50" relative="1" as="geometry">
            <mxPoint x="570" y="100" as="sourcePoint" />
            <mxPoint x="440" y="100" as="targetPoint" />
          </mxGeometry>
        </mxCell>
        <mxCell id="UjC964fogurT_Rf7UAPe-16" value="" style="shape=flexArrow;endArrow=classic;html=1;rounded=0;fillColor=#d5e8d4;strokeColor=#82b366;" edge="1" parent="1">
          <mxGeometry width="50" height="50" relative="1" as="geometry">
            <mxPoint x="440.05" y="140" as="sourcePoint" />
            <mxPoint x="570" y="140" as="targetPoint" />
          </mxGeometry>
        </mxCell>
        <mxCell id="UjC964fogurT_Rf7UAPe-17" value="&lt;font style=&quot;font-size: 14px&quot;&gt;&lt;span&gt;Pull&lt;/span&gt;&lt;/font&gt;" style="text;html=1;strokeColor=none;fillColor=none;align=center;verticalAlign=middle;whiteSpace=wrap;rounded=0;fontFamily=Montserrat Light 300;fontSource=https%3A%2F%2Ffonts.googleapis.com%2Fcss%3Ffamily%3DMontserrat%2BLight%2B300;fontSize=16;" vertex="1" parent="1">
          <mxGeometry x="470" y="60" width="60" height="30" as="geometry" />
        </mxCell>
        <mxCell id="UjC964fogurT_Rf7UAPe-21" value="&lt;b&gt;&lt;font style=&quot;font-size: 14px&quot;&gt;Developed in python using VS Code&lt;/font&gt;&lt;/b&gt;" style="text;html=1;strokeColor=none;fillColor=none;align=center;verticalAlign=middle;whiteSpace=wrap;rounded=0;fontFamily=Montserrat Light 300;fontSource=https%3A%2F%2Ffonts.googleapis.com%2Fcss%3Ffamily%3DMontserrat%2BLight%2B300;fontSize=16;" vertex="1" parent="1">
          <mxGeometry x="220.00000000000003" y="20" width="159.89" height="30" as="geometry" />
        </mxCell>
        <mxCell id="UjC964fogurT_Rf7UAPe-22" value="&lt;b&gt;&lt;font style=&quot;font-size: 14px&quot;&gt;Version Control System&lt;/font&gt;&lt;/b&gt;" style="text;html=1;strokeColor=none;fillColor=none;align=center;verticalAlign=middle;whiteSpace=wrap;rounded=0;fontFamily=Montserrat Light 300;fontSource=https%3A%2F%2Ffonts.googleapis.com%2Fcss%3Ffamily%3DMontserrat%2BLight%2B300;fontSize=16;" vertex="1" parent="1">
          <mxGeometry x="577.82" y="20" width="159.89" height="30" as="geometry" />
        </mxCell>
        <mxCell id="UjC964fogurT_Rf7UAPe-23" value="&lt;b&gt;&lt;font style=&quot;font-size: 14px&quot;&gt;Project Tracking&lt;/font&gt;&lt;/b&gt;" style="text;html=1;strokeColor=none;fillColor=none;align=center;verticalAlign=middle;whiteSpace=wrap;rounded=0;fontFamily=Montserrat Light 300;fontSource=https%3A%2F%2Ffonts.googleapis.com%2Fcss%3Ffamily%3DMontserrat%2BLight%2B300;fontSize=16;" vertex="1" parent="1">
          <mxGeometry x="882.55" y="20" width="159.89" height="30" as="geometry" />
        </mxCell>
        <mxCell id="UjC964fogurT_Rf7UAPe-26" value="Get Work" style="text;html=1;strokeColor=none;fillColor=none;align=center;verticalAlign=middle;whiteSpace=wrap;rounded=0;fontFamily=Montserrat Light 300;fontSource=https%3A%2F%2Ffonts.googleapis.com%2Fcss%3Ffamily%3DMontserrat%2BLight%2B300;fontSize=14;" vertex="1" parent="1">
          <mxGeometry x="750" y="57.5" width="122.68" height="30" as="geometry" />
        </mxCell>
        <mxCell id="UjC964fogurT_Rf7UAPe-27" value="Push" style="text;html=1;strokeColor=none;fillColor=none;align=center;verticalAlign=middle;whiteSpace=wrap;rounded=0;fontFamily=Montserrat Light 300;fontSource=https%3A%2F%2Ffonts.googleapis.com%2Fcss%3Ffamily%3DMontserrat%2BLight%2B300;fontSize=14;" vertex="1" parent="1">
          <mxGeometry x="470" y="150" width="60" height="30" as="geometry" />
        </mxCell>
        <mxCell id="UjC964fogurT_Rf7UAPe-28" value="Update board" style="text;html=1;strokeColor=none;fillColor=none;align=center;verticalAlign=middle;whiteSpace=wrap;rounded=0;fontFamily=Montserrat Light 300;fontSource=https%3A%2F%2Ffonts.googleapis.com%2Fcss%3Ffamily%3DMontserrat%2BLight%2B300;fontSize=14;" vertex="1" parent="1">
          <mxGeometry x="750" y="150" width="122.68" height="30" as="geometry" />
        </mxCell>
        <mxCell id="UjC964fogurT_Rf7UAPe-32" style="edgeStyle=orthogonalEdgeStyle;rounded=0;orthogonalLoop=1;jettySize=auto;html=1;exitX=0.5;exitY=1;exitDx=0;exitDy=0;fontSize=16;fillColor=#FFFFFF;" edge="1" parent="1" source="UjC964fogurT_Rf7UAPe-27" target="UjC964fogurT_Rf7UAPe-27">
          <mxGeometry relative="1" as="geometry" />
        </mxCell>
        <mxCell id="UjC964fogurT_Rf7UAPe-33" value="" style="shape=flexArrow;endArrow=classic;html=1;rounded=0;fillColor=#f8cecc;strokeColor=#b85450;" edge="1" parent="1">
          <mxGeometry width="50" height="50" relative="1" as="geometry">
            <mxPoint x="880" y="100" as="sourcePoint" />
            <mxPoint x="750" y="100" as="targetPoint" />
          </mxGeometry>
        </mxCell>
        <mxCell id="UjC964fogurT_Rf7UAPe-34" value="" style="shape=flexArrow;endArrow=classic;html=1;rounded=0;fillColor=#d5e8d4;strokeColor=#82b366;" edge="1" parent="1">
          <mxGeometry width="50" height="50" relative="1" as="geometry">
            <mxPoint x="750" y="140" as="sourcePoint" />
            <mxPoint x="879.95" y="140" as="targetPoint" />
          </mxGeometry>
        </mxCell>
        <mxCell id="UjC964fogurT_Rf7UAPe-35" value="" style="shape=flexArrow;endArrow=classic;html=1;rounded=0;fillColor=#f8cecc;strokeColor=#b85450;" edge="1" parent="1">
          <mxGeometry width="50" height="50" relative="1" as="geometry">
            <mxPoint x="880" y="369.5" as="sourcePoint" />
            <mxPoint x="750" y="369.5" as="targetPoint" />
          </mxGeometry>
        </mxCell>
        <mxCell id="UjC964fogurT_Rf7UAPe-36" value="" style="shape=flexArrow;endArrow=classic;html=1;rounded=0;fillColor=#d5e8d4;strokeColor=#82b366;" edge="1" parent="1">
          <mxGeometry width="50" height="50" relative="1" as="geometry">
            <mxPoint x="750.05" y="410" as="sourcePoint" />
            <mxPoint x="879.9999999999998" y="410" as="targetPoint" />
          </mxGeometry>
        </mxCell>
        <mxCell id="UjC964fogurT_Rf7UAPe-37" value="Pytest Results" style="text;html=1;strokeColor=none;fillColor=none;align=center;verticalAlign=middle;whiteSpace=wrap;rounded=0;fontFamily=Montserrat Light 300;fontSource=https%3A%2F%2Ffonts.googleapis.com%2Fcss%3Ffamily%3DMontserrat%2BLight%2B300;fontSize=14;" vertex="1" parent="1">
          <mxGeometry x="757.32" y="330" width="122.68" height="30" as="geometry" />
        </mxCell>
        <mxCell id="UjC964fogurT_Rf7UAPe-38" value="Automated Testing" style="text;html=1;strokeColor=none;fillColor=none;align=center;verticalAlign=middle;whiteSpace=wrap;rounded=0;fontFamily=Montserrat Light 300;fontSource=https%3A%2F%2Ffonts.googleapis.com%2Fcss%3Ffamily%3DMontserrat%2BLight%2B300;fontSize=14;" vertex="1" parent="1">
          <mxGeometry x="757.32" y="420" width="122.68" height="30" as="geometry" />
        </mxCell>
        <mxCell id="UjC964fogurT_Rf7UAPe-39" value="" style="shape=image;verticalLabelPosition=bottom;labelBackgroundColor=default;verticalAlign=top;aspect=fixed;imageAspect=0;image=https://o.remove.bg/downloads/f99a4950-7081-4709-b2af-51909032792b/image-removebg-preview.png;" vertex="1" parent="1">
          <mxGeometry x="92.63000000000005" y="340" width="268.64" height="140" as="geometry" />
        </mxCell>
        <mxCell id="UjC964fogurT_Rf7UAPe-40" value="" style="shape=flexArrow;endArrow=classic;html=1;rounded=0;fillColor=#d5e8d4;strokeColor=#82b366;" edge="1" parent="1">
          <mxGeometry width="50" height="50" relative="1" as="geometry">
            <mxPoint x="630" y="190" as="sourcePoint" />
            <mxPoint x="630" y="320" as="targetPoint" />
          </mxGeometry>
        </mxCell>
        <mxCell id="UjC964fogurT_Rf7UAPe-42" value="" style="shape=flexArrow;endArrow=classic;html=1;rounded=0;fillColor=#f8cecc;strokeColor=#b85450;" edge="1" parent="1">
          <mxGeometry width="50" height="50" relative="1" as="geometry">
            <mxPoint x="680" y="320" as="sourcePoint" />
            <mxPoint x="680" y="190" as="targetPoint" />
          </mxGeometry>
        </mxCell>
        <mxCell id="UjC964fogurT_Rf7UAPe-44" value="&lt;b&gt;&lt;font style=&quot;font-size: 14px&quot;&gt;Jenkins CI/CD Server&lt;/font&gt;&lt;/b&gt;" style="text;html=1;strokeColor=none;fillColor=none;align=center;verticalAlign=middle;whiteSpace=wrap;rounded=0;fontFamily=Montserrat Light 300;fontSource=https%3A%2F%2Ffonts.googleapis.com%2Fcss%3Ffamily%3DMontserrat%2BLight%2B300;fontSize=16;" vertex="1" parent="1">
          <mxGeometry x="577.82" y="460" width="159.89" height="30" as="geometry" />
        </mxCell>
        <mxCell id="UjC964fogurT_Rf7UAPe-45" value="&lt;font style=&quot;font-size: 14px&quot;&gt;&lt;b&gt;Hosted on Azure VM&lt;/b&gt;&lt;/font&gt;" style="text;html=1;strokeColor=none;fillColor=none;align=center;verticalAlign=middle;whiteSpace=wrap;rounded=0;fontFamily=Montserrat Light 300;fontSource=https%3A%2F%2Ffonts.googleapis.com%2Fcss%3Ffamily%3DMontserrat%2BLight%2B300;fontSize=16;" vertex="1" parent="1">
          <mxGeometry x="458.01000000000005" y="440" width="159.89" height="30" as="geometry" />
        </mxCell>
        <mxCell id="UjC964fogurT_Rf7UAPe-46" value="&lt;font style=&quot;font-size: 14px&quot;&gt;&lt;span&gt;Poll Code&lt;br&gt;&lt;/span&gt;&lt;/font&gt;" style="text;html=1;strokeColor=none;fillColor=none;align=center;verticalAlign=middle;whiteSpace=wrap;rounded=0;fontFamily=Montserrat Light 300;fontSource=https%3A%2F%2Ffonts.googleapis.com%2Fcss%3Ffamily%3DMontserrat%2BLight%2B300;fontSize=16;" vertex="1" parent="1">
          <mxGeometry x="675.54" y="240" width="100" height="30" as="geometry" />
        </mxCell>
        <mxCell id="UjC964fogurT_Rf7UAPe-47" value="&lt;font style=&quot;font-size: 14px&quot;&gt;&lt;span&gt;Pull Code&lt;br&gt;&lt;/span&gt;&lt;/font&gt;" style="text;html=1;strokeColor=none;fillColor=none;align=center;verticalAlign=middle;whiteSpace=wrap;rounded=0;fontFamily=Montserrat Light 300;fontSource=https%3A%2F%2Ffonts.googleapis.com%2Fcss%3Ffamily%3DMontserrat%2BLight%2B300;fontSize=16;" vertex="1" parent="1">
          <mxGeometry x="530" y="240" width="100" height="30" as="geometry" />
        </mxCell>
        <mxCell id="UjC964fogurT_Rf7UAPe-48" value="" style="shape=flexArrow;endArrow=classic;html=1;rounded=0;fillColor=#d5e8d4;strokeColor=#82b366;" edge="1" parent="1">
          <mxGeometry width="50" height="50" relative="1" as="geometry">
            <mxPoint x="450" y="399.5" as="sourcePoint" />
            <mxPoint x="320" y="399.5" as="targetPoint" />
          </mxGeometry>
        </mxCell>
        <mxCell id="UjC964fogurT_Rf7UAPe-49" value="Push images" style="text;html=1;strokeColor=none;fillColor=none;align=center;verticalAlign=middle;whiteSpace=wrap;rounded=0;fontFamily=Montserrat Light 300;fontSource=https%3A%2F%2Ffonts.googleapis.com%2Fcss%3Ffamily%3DMontserrat%2BLight%2B300;fontSize=14;" vertex="1" parent="1">
          <mxGeometry x="335.33000000000004" y="360" width="122.68" height="30" as="geometry" />
        </mxCell>
        <mxCell id="UjC964fogurT_Rf7UAPe-50" value="" style="shape=image;verticalLabelPosition=bottom;labelBackgroundColor=default;verticalAlign=top;aspect=fixed;imageAspect=0;image=https://o.remove.bg/downloads/95edaf20-e302-4788-9f91-20acc425bd04/image-removebg-preview.png;" vertex="1" parent="1">
          <mxGeometry x="7.890000000000001" y="584" width="372" height="178" as="geometry" />
        </mxCell>
        <mxCell id="UjC964fogurT_Rf7UAPe-51" value="" style="shape=flexArrow;endArrow=classic;html=1;rounded=0;fillColor=#d5e8d4;strokeColor=#82b366;" edge="1" parent="1">
          <mxGeometry width="50" height="50" relative="1" as="geometry">
            <mxPoint x="657.27" y="500" as="sourcePoint" />
            <mxPoint x="657.27" y="630" as="targetPoint" />
          </mxGeometry>
        </mxCell>
        <mxCell id="UjC964fogurT_Rf7UAPe-52" value="Build images" style="text;html=1;strokeColor=none;fillColor=none;align=center;verticalAlign=middle;whiteSpace=wrap;rounded=0;fontFamily=Montserrat Light 300;fontSource=https%3A%2F%2Ffonts.googleapis.com%2Fcss%3Ffamily%3DMontserrat%2BLight%2B300;fontSize=16;" vertex="1" parent="1">
          <mxGeometry x="669.9999999999999" y="540" width="100" height="30" as="geometry" />
        </mxCell>
        <mxCell id="UjC964fogurT_Rf7UAPe-53" value="" style="shape=image;verticalLabelPosition=bottom;labelBackgroundColor=default;verticalAlign=top;aspect=fixed;imageAspect=0;image=https://o.remove.bg/downloads/72da05aa-f306-4482-b4d3-d73841c81bbe/image-removebg-preview.png;" vertex="1" parent="1">
          <mxGeometry x="489.99999999999994" y="600" width="336.96" height="162" as="geometry" />
        </mxCell>
        <mxCell id="UjC964fogurT_Rf7UAPe-54" value="" style="shape=flexArrow;endArrow=classic;html=1;rounded=0;fillColor=#d5e8d4;strokeColor=#82b366;" edge="1" parent="1">
          <mxGeometry width="50" height="50" relative="1" as="geometry">
            <mxPoint x="509.89" y="670" as="sourcePoint" />
            <mxPoint x="379.89" y="670" as="targetPoint" />
          </mxGeometry>
        </mxCell>
        <mxCell id="UjC964fogurT_Rf7UAPe-55" value="Deploy Swarm Stack" style="text;html=1;strokeColor=none;fillColor=none;align=center;verticalAlign=middle;whiteSpace=wrap;rounded=0;fontFamily=Montserrat Light 300;fontSource=https%3A%2F%2Ffonts.googleapis.com%2Fcss%3Ffamily%3DMontserrat%2BLight%2B300;fontSize=14;" vertex="1" parent="1">
          <mxGeometry x="390.00000000000006" y="630" width="122.68" height="30" as="geometry" />
        </mxCell>
      </root>
    </mxGraphModel>
  </diagram>
</mxfile>
